<svg xmlns="http://www.w3.org/2000/svg" width="60" height="60" viewBox="0 0 60 60" >
    <path d="M26.4124 21.082C26.2612 21.0821 26.1134 21.0374 25.9877 20.9535C25.862 20.8696 25.764 20.7502 25.7061 20.6106C25.6483 20.4709 25.6331 20.3173 25.6627 20.169C25.6922 20.0208 25.765 19.8846 25.872 19.7778L27.2946 18.3562C27.439 18.219 27.6312 18.1436 27.8304 18.1462C28.0296 18.1487 28.2199 18.229 28.3607 18.3698C28.5016 18.5107 28.5818 18.701 28.5844 18.9001C28.5869 19.0993 28.5116 19.2916 28.3744 19.436L26.9527 20.8576C26.8818 20.9287 26.7976 20.9851 26.7049 21.0236C26.6122 21.0621 26.5128 21.082 26.4124 21.082Z" fill="#4A4A4A" stroke="#4A4A4A" stroke-width="0.3"/>
    <path d="M27.5151 25.0317C27.364 25.0318 27.2162 24.9871 27.0905 24.9032C26.9648 24.8193 26.8668 24.6999 26.8089 24.5603C26.751 24.4207 26.7359 24.267 26.7654 24.1187C26.795 23.9705 26.8678 23.8343 26.9747 23.7275L29.819 20.8843C29.8899 20.8133 29.9741 20.757 30.0667 20.7186C30.1594 20.6801 30.2587 20.6603 30.359 20.6603C30.4593 20.6602 30.5587 20.6799 30.6514 20.7183C30.7441 20.7566 30.8283 20.8129 30.8993 20.8838C30.9702 20.9547 31.0265 21.0389 31.065 21.1315C31.1034 21.2242 31.1232 21.3235 31.1233 21.4238C31.1233 21.5241 31.1036 21.6235 31.0652 21.7162C31.0269 21.8089 30.9707 21.8931 30.8998 21.9641L28.0546 24.8083C27.9114 24.9513 27.7174 25.0316 27.5151 25.0317Z" fill="#4A4A4A" stroke="#4A4A4A" stroke-width="0.3"/>
    <path d="M31.465 26.1384C31.3138 26.1385 31.166 26.0937 31.0403 26.0098C30.9146 25.9259 30.8166 25.8066 30.7587 25.6669C30.7009 25.5273 30.6858 25.3736 30.7153 25.2254C30.7448 25.0771 30.8176 24.941 30.9246 24.8342L32.3472 23.4125C32.4174 23.3386 32.5017 23.2795 32.5951 23.2387C32.6885 23.1979 32.7892 23.1762 32.8911 23.1749C32.9931 23.1736 33.0942 23.1927 33.1887 23.2311C33.2831 23.2695 33.3689 23.3264 33.441 23.3985C33.5131 23.4706 33.57 23.5564 33.6084 23.6508C33.6468 23.7453 33.666 23.8464 33.6646 23.9484C33.6633 24.0503 33.6416 24.151 33.6008 24.2444C33.56 24.3378 33.5009 24.4221 33.427 24.4924L32.0054 25.914C31.9345 25.9851 31.8502 26.0415 31.7575 26.08C31.6648 26.1185 31.5654 26.1383 31.465 26.1384Z" fill="#4A4A4A" stroke="#4A4A4A" stroke-width="0.3"/>
    <path d="M32.5706 30.0882C32.4195 30.0881 32.2718 30.0433 32.1463 29.9593C32.0207 29.8753 31.9229 29.7559 31.8651 29.6163C31.8074 29.4767 31.7923 29.3231 31.8219 29.175C31.8514 29.0268 31.9243 28.8908 32.0311 28.784L34.8754 25.9398C35.0187 25.796 35.2133 25.715 35.4163 25.7146C35.6194 25.7142 35.8142 25.7946 35.9581 25.9379C36.1019 26.0812 36.1829 26.2758 36.1832 26.4788C36.1836 26.6819 36.1033 26.8767 35.96 27.0206L33.1157 29.8648C33.0442 29.9363 32.9592 29.9928 32.8656 30.0312C32.772 30.0695 32.6717 30.0889 32.5706 30.0882Z" fill="#4A4A4A" stroke="#4A4A4A" stroke-width="0.3"/>
    <path d="M36.5213 31.1937C36.3704 31.1936 36.2228 31.1488 36.0973 31.065C35.9718 30.9811 35.8739 30.8619 35.8161 30.7225C35.7583 30.583 35.7431 30.4296 35.7724 30.2815C35.8018 30.1334 35.8743 29.9973 35.9809 29.8905L37.4035 28.4679C37.5468 28.3247 37.7412 28.2443 37.9438 28.2444C38.1464 28.2445 38.3406 28.325 38.4838 28.4684C38.627 28.6117 38.7074 28.806 38.7073 29.0086C38.7072 29.2112 38.6267 29.4055 38.4834 29.5487L37.0608 30.9703C36.9176 31.1133 36.7236 31.1936 36.5213 31.1937Z" fill="#4A4A4A" stroke="#4A4A4A" stroke-width="0.3"/>
    <path d="M37.627 35.1446C37.4759 35.1445 37.3282 35.0997 37.2027 35.0157C37.0771 34.9317 36.9793 34.8123 36.9215 34.6727C36.8638 34.5331 36.8487 34.3795 36.8783 34.2314C36.9078 34.0832 36.9807 33.9472 37.0875 33.8404L39.9318 30.9952C40.0751 30.852 40.2694 30.7716 40.472 30.7717C40.6746 30.7718 40.8689 30.8524 41.0121 30.9957C41.1553 31.139 41.2357 31.3334 41.2356 31.536C41.2355 31.7386 41.1549 31.9328 41.0116 32.076L38.1674 34.9202C38.0965 34.9913 38.0122 35.0477 37.9195 35.0862C37.8268 35.1247 37.7274 35.1446 37.627 35.1446Z" fill="#4A4A4A" stroke="#4A4A4A" stroke-width="0.3"/>
    <path d="M41.5777 36.2463C41.4268 36.2463 41.2792 36.2015 41.1537 36.1176C41.0282 36.0337 40.9303 35.9145 40.8725 35.7751C40.8147 35.6356 40.7995 35.4822 40.8288 35.3341C40.8582 35.186 40.9307 35.05 41.0373 34.9431L42.4599 33.5205C42.5309 33.4496 42.6151 33.3934 42.7078 33.355C42.8005 33.3167 42.8999 33.297 43.0002 33.297C43.1005 33.297 43.1998 33.3168 43.2925 33.3553C43.3851 33.3937 43.4693 33.45 43.5402 33.521C43.6111 33.5919 43.6674 33.6762 43.7057 33.7689C43.7441 33.8616 43.7638 33.9609 43.7637 34.0612C43.7637 34.1615 43.7439 34.2609 43.7054 34.3535C43.667 34.4462 43.6107 34.5304 43.5398 34.6013L42.1172 36.0229C41.974 36.1659 41.78 36.2462 41.5777 36.2463Z" fill="#4A4A4A" stroke="#4A4A4A" stroke-width="0.3"/>
    <path d="M42.6834 40.2009C42.5323 40.2009 42.3846 40.156 42.2591 40.072C42.1335 39.988 42.0357 39.8687 41.9779 39.7291C41.9202 39.5895 41.9051 39.4359 41.9347 39.2877C41.9642 39.1396 42.0371 39.0035 42.1439 38.8967L44.9872 36.0554C45.0582 35.9844 45.1424 35.9281 45.2351 35.8897C45.3279 35.8513 45.4272 35.8315 45.5276 35.8315C45.628 35.8315 45.7273 35.8513 45.8201 35.8897C45.9128 35.9281 45.997 35.9844 46.068 36.0554C46.139 36.1263 46.1952 36.2106 46.2337 36.3033C46.2721 36.396 46.2918 36.4954 46.2918 36.5958C46.2918 36.6961 46.2721 36.7955 46.2337 36.8882C46.1952 36.981 46.139 37.0652 46.068 37.1362L43.2238 39.9794C43.0801 40.1219 42.8857 40.2016 42.6834 40.2009Z" fill="#4A4A4A" stroke="#4A4A4A" stroke-width="0.3"/>
    <path d="M46.6341 41.3065C46.4832 41.3064 46.3356 41.2616 46.2101 41.1778C46.0846 41.0939 45.9867 40.9747 45.9289 40.8353C45.8711 40.6958 45.8559 40.5424 45.8852 40.3943C45.9146 40.2462 45.9871 40.1101 46.0937 40.0033L47.5163 38.5807C47.6596 38.4375 47.854 38.3571 48.0566 38.3572C48.2592 38.3573 48.4534 38.4378 48.5966 38.5812C48.7398 38.7245 48.8202 38.9188 48.8201 39.1214C48.82 39.324 48.7395 39.5183 48.5961 39.6615L47.1736 41.0831C47.0304 41.2261 46.8364 41.3064 46.6341 41.3065Z" fill="#4A4A4A" stroke="#4A4A4A" stroke-width="0.3"/>
    <path d="M42.3014 51.9999C42.2011 52 42.1017 51.9803 42.009 51.9419C41.9163 51.9036 41.832 51.8474 41.7611 51.7765L7.73159 17.747C7.58846 17.6038 7.50806 17.4096 7.50806 17.2071C7.50806 17.0046 7.58846 16.8104 7.73159 16.6672L16.6672 7.73159C16.8104 7.58846 17.0046 7.50806 17.2071 7.50806C17.4096 7.50806 17.6038 7.58846 17.747 7.73159L51.7765 41.7611C51.9196 41.9043 52 42.0985 52 42.301C52 42.5035 51.9196 42.6977 51.7765 42.8409L42.8409 51.7765C42.6978 51.9194 42.5037 51.9998 42.3014 51.9999ZM9.35182 17.2066L42.3014 50.1562L50.1562 42.3014L17.2066 9.35182L9.35182 17.2066Z" fill="#4A4A4A" stroke="#4A4A4A" stroke-width="0.3"/>
    <path d="M16.1965 19.0216C15.636 19.0236 15.0876 18.8589 14.6209 18.5485C14.1542 18.2382 13.7903 17.7961 13.5754 17.2784C13.3605 16.7607 13.3044 16.1909 13.4141 15.6412C13.5238 15.0916 13.7944 14.587 14.1915 14.1915C14.5204 13.8633 14.9251 13.6213 15.3698 13.4868C15.8145 13.3522 16.2854 13.3293 16.7411 13.4201C17.1967 13.5108 17.623 13.7124 17.9822 14.0071C18.3414 14.3017 18.6225 14.6803 18.8006 15.1094C18.9787 15.5385 19.0484 16.0048 19.0034 16.4673C18.9585 16.9297 18.8003 17.3739 18.5429 17.7606C18.2854 18.1474 17.9367 18.4647 17.5274 18.6847C17.1182 18.9046 16.6611 19.0203 16.1965 19.0216ZM15.2761 15.2751C15.094 15.4571 14.97 15.6889 14.9197 15.9414C14.8695 16.1939 14.8952 16.4555 14.9936 16.6934C15.0921 16.9312 15.2589 17.1345 15.4729 17.2775C15.687 17.4206 15.9386 17.4969 16.196 17.4969C16.4534 17.4969 16.705 17.4206 16.9191 17.2775C17.1331 17.1345 17.2999 16.9312 17.3983 16.6934C17.4968 16.4555 17.5225 16.1939 17.4723 15.9414C17.422 15.6889 17.298 15.4571 17.1159 15.2751C16.8716 15.0317 16.5408 14.895 16.196 14.895C15.8512 14.895 15.5204 15.0317 15.2761 15.2751Z" fill="#4A4A4A" stroke="#4A4A4A" stroke-width="0.3"/>
    <path d="M22.4587 19.9754C22.3077 19.9753 22.1602 19.9305 22.0347 19.8466C21.9092 19.7628 21.8113 19.6436 21.7535 19.5041C21.6957 19.3647 21.6805 19.2112 21.7098 19.0631C21.7391 18.9151 21.8117 18.779 21.9183 18.6721L24.7625 15.8279C24.9083 15.6984 25.098 15.6295 25.2929 15.6354C25.4878 15.6412 25.6731 15.7214 25.8107 15.8594C25.9484 15.9975 26.0281 16.183 26.0335 16.3779C26.0388 16.5728 25.9694 16.7623 25.8395 16.9077L22.9953 19.752C22.8529 19.8942 22.66 19.9745 22.4587 19.9754Z" fill="#4A4A4A" stroke="#4A4A4A" stroke-width="0.3"/>
</svg>